<svg width="20" height="21" viewBox="0 0 20 21" fill="none" xmlns="http://www.w3.org/2000/svg">
    <g clip-path="url(#o0pojqlk3a)">
        <path d="M12.273 6.106h-.606V.5H4.092c-.754 0-1.364.61-1.364 1.363v17.274c0 .753.61 1.363 1.363 1.363h11.818c.754 0 1.364-.61 1.364-1.363V6.106h-5zm-.455 8.712h-5.91v-1.136h5.909v1.136h.001zm2.273-2.727H5.909v-1.137h8.182v1.137zm0-2.728H5.909V8.227h8.182v1.136zM12.273 5.5h5l-5-5v5z" fill="url(#ldkpv0orcb)"/>
    </g>
    <defs>
        <linearGradient id="ldkpv0orcb" x1="10" y1=".5" x2="10" y2="20.5" gradientUnits="userSpaceOnUse">
            <stop stop-color="#7B6C96"/>
            <stop offset="1" stop-color="#AE9CCE"/>
        </linearGradient>
        <clipPath id="o0pojqlk3a">
            <path fill="#fff" transform="translate(0 .5)" d="M0 0h20v20H0z"/>
        </clipPath>
    </defs>
</svg>
