<svg width="21" height="26" viewBox="0 0 21 26" fill="none" xmlns="http://www.w3.org/2000/svg">
    <g clip-path="url(#coitkug0ba)" fill="#fff">
        <path d="M18.015 13.281c0 .846-.14 1.685-.413 2.486l-1.255-1.255c.082-.405.123-.818.123-1.231v-1.542a.771.771 0 0 1 1.541 0l.004 1.542zm-7.707 6.166a6.13 6.13 0 0 0 3.41-1.028l1.106 1.108a7.666 7.666 0 0 1-3.745 1.42v3.121h4.623a.771.771 0 0 1 0 1.541H4.914a.772.772 0 0 1-.303-1.49.77.77 0 0 1 .303-.051h4.624v-3.121a7.706 7.706 0 0 1-6.936-7.666v-1.542a.771.771 0 0 1 1.541 0v1.541a6.165 6.165 0 0 0 6.165 6.167zm4.624-13.873v7.52l-9-9a4.625 4.625 0 0 1 9 1.484v-.004z"/>
        <path d="m12.598 17.299-6.914-6.916v2.9a4.624 4.624 0 0 0 6.914 4.018v-.002zM.515 3.038l18.5 18.495 1.091-1.091-18.5-18.495-1.09 1.091z"/>
    </g>
    <defs>
        <clipPath id="coitkug0ba">
            <path fill="#fff" transform="translate(.515 .955)" d="M0 0h19.586v24.656H0z"/>
        </clipPath>
    </defs>
</svg>
